<?xml version="1.0" encoding="UTF-8" standalone="no"?>
<!-- Created with Inkscape (http://www.inkscape.org/) -->

<svg
   width="642.5697mm"
   height="71.44014mm"
   viewBox="0 0 642.5697 71.44014"
   version="1.1"
   id="svg325"
   xml:space="preserve"
   inkscape:version="1.2.1 (9c6d41e410, 2022-07-14)"
   sodipodi:docname="Logo.svg"
   inkscape:export-filename="Logo.png"
   inkscape:export-xdpi="600"
   inkscape:export-ydpi="600"
   xmlns:inkscape="http://www.inkscape.org/namespaces/inkscape"
   xmlns:sodipodi="http://sodipodi.sourceforge.net/DTD/sodipodi-0.dtd"
   xmlns="http://www.w3.org/2000/svg"
   xmlns:svg="http://www.w3.org/2000/svg"><sodipodi:namedview
     id="namedview327"
     pagecolor="#505050"
     bordercolor="#eeeeee"
     borderopacity="1"
     inkscape:showpageshadow="0"
     inkscape:pageopacity="0"
     inkscape:pagecheckerboard="0"
     inkscape:deskcolor="#505050"
     inkscape:document-units="mm"
     showgrid="false"
     inkscape:zoom="0.914906"
     inkscape:cx="1726.9534"
     inkscape:cy="123.50996"
     inkscape:window-width="3840"
     inkscape:window-height="2066"
     inkscape:window-x="-11"
     inkscape:window-y="-11"
     inkscape:window-maximized="1"
     inkscape:current-layer="layer1" /><defs
     id="defs322" /><g
     inkscape:label="Layer 1"
     inkscape:groupmode="layer"
     id="layer1"
     transform="translate(153.59737,107.23703)"><path
       style="fill:#c2c3c4;fill-opacity:1;stroke-width:1.40085"
       d="m -131.09031,-37.13058 c -2.06535,-0.294795 -3.95991,-1.18194 -5.12701,-2.400737 -0.60327,-0.630004 -0.59938,-0.636351 0.21306,-0.347537 1.77363,0.630509 4.57062,0.816696 6.1001,0.406079 0.83774,-0.22492 1.85389,-0.694108 1.85249,-0.855358 -4.1e-4,-0.05421 -0.77554,-0.364054 -1.72238,-0.688533 -4.98448,-1.708198 -9.47482,-4.558131 -13.4132,-8.51314 -2.96192,-2.974425 -4.79762,-5.49478 -6.60347,-9.066306 -2.1818,-4.315097 -3.52139,-9.238037 -3.72638,-13.694256 -0.0626,-1.36031 -0.0459,-1.595443 0.0984,-1.385722 0.0956,0.138965 0.57917,0.868387 1.0746,1.621065 0.94626,1.437596 2.34655,3.192174 2.5476,3.192174 0.065,0 -0.15477,-0.461803 -0.48846,-1.026221 -0.81218,-1.37373 -1.92281,-3.602176 -2.68708,-5.391496 l -0.62533,-1.464029 0.14714,-1.471749 c 0.18377,-1.838225 0.46153,-3.445784 0.88137,-5.100974 0.40658,-1.602966 0.9893,-3.403647 1.15629,-3.573093 0.0787,-0.07984 0.12647,0.419891 0.12647,1.32243 0,1.75825 0.18218,3.491412 0.61402,5.841535 1.93191,10.513623 8.4455,19.979033 17.56632,25.527032 3.88876,2.365449 7.47922,3.752488 12.5985,4.86692 0.30121,0.06556 0.29075,0.08742 -0.21848,0.456314 -0.3052,0.221082 -0.66641,0.659212 -0.84127,1.020435 -0.35771,0.738935 -0.33427,1.362665 0.14541,3.869893 0.32204,1.68329 0.30001,2.744604 -0.0733,3.531336 -1.07385,2.26299 -5.72951,3.875747 -9.59543,3.323938 z m 10.78735,-1.980831 c 0.10537,-0.170526 3.69742,-2.400708 5.43581,-3.374916 2.23064,-1.250092 2.79293,-1.44303 4.22042,-1.448144 1.21683,-0.0042 1.2724,0.0084 1.58752,0.374784 0.17961,0.208615 0.38724,0.341807 0.4614,0.295972 0.20223,-0.124953 0.16233,-1.090983 -0.0678,-1.641741 -0.1115,-0.266736 -0.20263,-0.574741 -0.20263,-0.684457 0,-0.376087 -0.43862,-1.123762 -0.81754,-1.393565 -0.27773,-0.197773 -0.99777,-0.360916 -2.69579,-0.610813 -2.10347,-0.309574 -4.35416,-0.864382 -4.50597,-1.110764 -0.0329,-0.05337 1.56038,-0.09834 3.54068,-0.09974 4.01344,-0.0029 5.28686,-0.142271 8.59881,-0.941188 6.933626,-1.672547 12.861328,-5.018017 18.068108,-10.197243 1.021598,-1.016205 1.857472,-1.807994 1.857472,-1.759539 0,0.238088 -0.793161,2.006089 -1.59463,3.554505 -0.867085,1.675194 -0.935041,1.763517 -2.099387,2.729012 -1.345854,1.116016 -2.63577,2.009549 -4.13786,2.866379 -0.555437,0.316831 -0.930893,0.576072 -0.834347,0.576072 0.302668,0 2.069295,-0.630594 3.161356,-1.128427 0.575821,-0.262505 1.046941,-0.452896 1.046941,-0.423099 0,0.177543 -2.110874,2.645002 -3.279827,3.833862 -5.536247,5.630594 -12.399936,9.119007 -20.360686,10.348155 -1.72324,0.266079 -7.51525,0.450345 -7.38207,0.234867 z m 3.19432,-12.740948 c -7.77609,-0.869104 -14.83656,-4.164828 -20.37343,-9.510027 -2.71618,-2.622142 -4.47969,-4.881097 -6.30341,-8.074253 -2.11727,-3.707156 -3.7485,-8.54858 -4.26723,-12.664895 l -0.16173,-1.283335 0.50141,-1.485981 c 1.4619,-4.332621 4.1171,-8.564367 7.50406,-11.959679 3.73129,-3.740491 8.10122,-6.361911 13.14749,-7.886901 3.03198,-0.91626 5.69346,-1.29478 9.10404,-1.29478 5.00483,0 9.51594,1.04361 13.83034,3.19953 8.404848,4.199931 14.36313,11.582807 16.60568,20.576061 0.685817,2.750276 0.868766,4.360148 0.867366,7.632508 -0.0014,3.979242 -0.403024,6.505368 -1.603583,10.09372 -0.898238,2.684701 -1.250244,3.301454 -2.45457,4.300652 -1.715845,1.423573 -2.212826,1.80141 -3.498918,2.660104 -4.138254,2.76301 -8.683415,4.548465 -13.846575,5.439294 -1.93973,0.334677 -7.05915,0.48059 -9.05094,0.257982 z"
       id="path1788-1"
       inkscape:connector-curvature="0"
       inkscape:export-xdpi="600"
       inkscape:export-ydpi="600"
       inkscape:export-filename="Logo.png" /><g
       inkscape:label="Ebene 1"
       id="layer1-0"
       transform="matrix(0.37064178,0,0,0.37064178,-129.65495,-253.60984)"
       style="fill:#c2c3c4;fill-opacity:1"><g
         id="g10640"
         style="fill:#c2c3c4;fill-opacity:1"><path
           d="M 177.69749,567.2595 V 415.322 h 151.9375 v 30.3875 h -121.55 v 91.16032 h 121.55 v 30.38968 z"
           style="fill:#c2c3c4;fill-opacity:1;fill-rule:nonzero;stroke:none"
           id="path2648" /><path
           d="m 266.14237,454.6772 h 6.36587 V 475.02 c 0,2.31566 0.0896,2.84869 0.53304,3.69413 0.71435,1.38065 2.18239,2.13651 4.22934,2.13651 2.71762,0 4.45217,-1.33477 4.71869,-3.60455 0.0896,-0.66848 0.0896,-1.11195 0.0896,-2.76131 V 454.6772 h 6.32217 v 20.83215 c 0,2.93826 -0.0459,3.51717 -0.48934,4.85195 -0.80174,2.44891 -3.82957,5.83283 -10.50783,5.83283 -4.71651,0 -8.1463,-1.42435 -9.92673,-4.13978 -1.02238,-1.60348 -1.33478,-2.84869 -1.33478,-5.83283 V 454.6772"
           style="fill:#c2c3c4;fill-opacity:1;fill-rule:nonzero;stroke:none"
           id="path2650" /><path
           d="m 294.63366,454.6772 h 6.8989 l 5.92021,12.37346 c 1.55761,3.29434 2.75912,6.545 3.38391,8.77108 -0.22282,-2.40303 -0.44565,-6.36586 -0.49153,-8.50238 l -0.13326,-12.64216 h 5.9224 v 30.93801 h -6.49912 l -5.29979,-11.8426 c -1.69087,-3.87108 -3.60456,-8.23368 -4.18347,-10.14956 0.22282,2.53848 0.26652,6.18891 0.31239,8.77109 l 0.17695,13.22107 h -6.00759 V 454.6772"
           style="fill:#c2c3c4;fill-opacity:1;fill-rule:nonzero;stroke:none"
           id="path2652" /><path
           d="m 323.1446,485.61521 h 6.49913 V 454.6772 h -6.49913 z"
           style="fill:#c2c3c4;fill-opacity:1;fill-rule:nonzero;stroke:none"
           id="path2654" /><path
           d="m 334.16362,454.6772 h 6.81152 l 5.11847,16.11346 c 0.13545,0.53522 0.62479,2.13652 0.98088,3.47348 0.17695,0.75586 0.26652,1.06607 0.44347,1.91369 0.17913,-0.89131 0.2687,-1.15783 0.53522,-2.22609 0.48935,-1.64717 0.75586,-2.40303 1.24739,-3.96064 l 5.25173,-15.3139 6.54282,-0.0459 -10.77216,31.20672 h -5.65369 L 334.16362,454.6772"
           style="fill:#c2c3c4;fill-opacity:1;fill-rule:nonzero;stroke:none"
           id="path2656" /><path
           d="m 364.47903,454.6772 h 17.62956 l -0.80174,5.07259 h -10.59521 v 7.16761 h 8.85847 v 5.07478 h -8.7689 v 8.27955 h 11.70716 v 5.34348 h -18.02934 z"
           style="fill:#c2c3c4;fill-opacity:1;fill-rule:nonzero;stroke:none"
           id="path2658" /><path
           d="m 387.18118,454.63132 11.53021,0.0459 c 5.47674,0 9.0813,3.65043 9.0813,9.07911 0,4.63131 -3.07152,8.45869 -6.8989,8.54826 0.6226,0.48935 0.88912,0.75805 1.2889,1.29109 1.78262,2.22608 7.43631,12.01955 7.43631,12.01955 h -7.34456 c -1.2037,-2.04913 -1.69305,-2.89457 -2.89457,-5.07478 -3.07152,-5.56412 -4.05021,-7.03434 -5.12065,-7.56738 -0.31021,-0.13544 -0.48716,-0.22283 -0.97869,-0.2687 v 12.91086 h -6.09935 z m 6.14304,5.03109 -0.0437,8.36912 h 2.09282 c 2.67175,0 3.82739,-0.2687 4.67282,-1.02457 0.75805,-0.71217 1.2037,-1.8263 1.2037,-3.11521 0,-1.91369 -0.75586,-3.20696 -2.22608,-3.78369 -0.71218,-0.2687 -2.00326,-0.44565 -3.51718,-0.44565 h -2.18239"
           style="fill:#c2c3c4;fill-opacity:1;fill-rule:nonzero;stroke:none"
           id="path2660" /><path
           d="m 433.83506,456.85741 -2.93826,4.45217 c -2.80281,-1.69305 -4.89564,-2.35934 -7.2113,-2.35934 -2.53848,0 -4.31891,1.46803 -4.31891,3.56086 0,1.60348 0.84762,2.40304 3.42979,3.11521 l 3.73782,1.02457 c 5.07477,1.38065 7.8339,4.62912 7.8339,9.21455 0,6.2763 -5.0726,10.41608 -12.77324,10.41608 -3.51936,0 -7.43631,-1.02238 -10.55152,-2.80282 l 2.31566,-4.85195 c 2.89238,1.51392 5.38499,2.49261 8.50238,2.49261 3.56087,0 5.43087,-1.47022 5.43087,-4.22935 0,-2.00326 -1.29109,-3.29434 -4.0524,-4.00652 l -3.4276,-0.935 c -3.07152,-0.84543 -4.98522,-2.04695 -6.09935,-3.91695 -0.84543,-1.38065 -1.2889,-2.98195 -1.2889,-4.71869 0,-5.65369 4.53955,-9.57064 11.08455,-9.57064 3.7837,0 7.61108,1.15783 10.32651,3.11521"
           style="fill:#c2c3c4;fill-opacity:1;fill-rule:nonzero;stroke:none"
           id="path2662" /><path
           d="m 439.88853,485.61521 h 6.49912 V 454.6772 h -6.49912 z"
           style="fill:#c2c3c4;fill-opacity:1;fill-rule:nonzero;stroke:none"
           id="path2664" /><path
           d="m 450.46408,454.6772 h 22.30237 l -1.02457,5.16216 h -7.38824 v 25.77585 h -6.32218 v -25.77585 h -7.56738 z"
           style="fill:#c2c3c4;fill-opacity:1;fill-rule:nonzero;stroke:none"
           id="path2666" /><path
           d="m 481.98101,454.58763 h 6.72195 l 9.74978,31.02758 h -6.67826 l -2.18021,-7.34455 h -9.0813 l -2.1824,7.34455 h -6.49912 z m -1.87,-7.92347 c 1.91587,0 3.47348,1.6013 3.47348,3.56087 0,1.95956 -1.60348,3.56086 -3.56305,3.56086 -1.91369,0 -3.51499,-1.6013 -3.51499,-3.56086 0,-1.95957 1.64717,-3.56087 3.60456,-3.56087 m 1.91587,26.44215 h 6.05347 c 0,0 -1.02457,-3.25065 -1.69086,-6.2326 -0.3124,-1.42435 -1.2474,-5.47456 -1.2474,-5.47456 0,0 -0.89131,3.65043 -1.47022,5.9639 -0.57891,2.22609 -0.97869,3.69413 -1.64499,5.74326 M 492.976,450.22503 c 0,1.95956 -1.6013,3.56086 -3.56087,3.56086 -1.95738,0 -3.51717,-1.6013 -3.51717,-3.56086 0,-1.95957 1.60348,-3.56087 3.60674,-3.56087 1.91369,0 3.4713,1.6013 3.4713,3.56087"
           style="fill:#c2c3c4;fill-opacity:1;fill-rule:nonzero;stroke:none"
           id="path2668" /><path
           d="m 498.80227,454.6772 h 22.30237 l -1.02457,5.16216 h -7.38825 v 25.77585 h -6.32217 v -25.77585 h -7.56738 z"
           style="fill:#c2c3c4;fill-opacity:1;fill-rule:nonzero;stroke:none"
           id="path2670" /><path
           d="m 266.06154,497.52336 h 6.5887 l 2.66955,12.1965 c 1.29327,5.78695 1.64717,10.19543 1.64717,10.19543 0.13326,-1.20151 0.66849,-5.61 1.60349,-9.88303 l 2.75912,-12.5089 h 6.81152 l 2.84869,13.84368 c 0.57891,2.89456 1.33478,8.19217 1.33478,8.19217 0.0896,-0.98088 1.15783,-7.70283 1.69305,-10.28282 l 2.53629,-11.75303 h 6.54282 l -7.47782,31.20453 h -6.80933 l -2.76131,-12.59847 c -1.06826,-4.80608 -1.42434,-8.72303 -1.46804,-8.99173 0,0 -0.6226,4.3626 -1.51391,8.90435 l -2.5363,12.68585 h -7.08022 l -7.38825,-31.20453"
           style="fill:#c2c3c4;fill-opacity:1;fill-rule:nonzero;stroke:none"
           id="path2672" /><path
           d="m 307.36976,497.55612 h 6.36586 v 20.34499 c 0,2.31347 0.0896,2.84869 0.53522,3.69413 0.71218,1.37847 2.18021,2.13651 4.22935,2.13651 2.71543,0 4.44999,-1.33696 4.71651,-3.60455 0.0896,-0.66848 0.0896,-1.11414 0.0896,-2.76131 v -19.80977 h 6.32218 v 20.83215 c 0,2.94045 -0.0437,3.51936 -0.48935,4.85414 -0.80174,2.44891 -3.82957,5.83064 -10.50783,5.83064 -4.7165,0 -8.14411,-1.42434 -9.92454,-4.13978 -1.02457,-1.60348 -1.33696,-2.84869 -1.33696,-5.83064 v -21.54651"
           style="fill:#c2c3c4;fill-opacity:1;fill-rule:nonzero;stroke:none"
           id="path2674" /><path
           d="m 336.60598,497.47748 11.53021,0.0459 c 5.47456,0 9.07912,3.65043 9.07912,9.08129 0,4.62913 -3.07152,8.45869 -6.89891,8.54608 0.62261,0.49153 0.89131,0.75805 1.29109,1.29108 1.78043,2.22609 7.43412,12.01956 7.43412,12.01956 h -7.34455 c -1.20371,-2.04695 -1.69087,-2.89238 -2.89457,-5.07478 -3.07152,-5.56412 -4.05021,-7.03434 -5.11847,-7.56738 -0.31239,-0.13326 -0.48934,-0.22283 -0.98088,-0.26871 v 12.91087 h -6.09716 z m 6.14304,5.03109 -0.0459,8.36912 h 2.09283 c 2.67174,0 3.82957,-0.2687 4.675,-1.02238 0.75587,-0.71436 1.20152,-1.82631 1.20152,-3.1174 0,-1.91369 -0.75586,-3.20478 -2.22609,-3.78369 -0.71217,-0.2687 -2.00326,-0.44565 -3.51717,-0.44565 H 342.749"
           style="fill:#c2c3c4;fill-opacity:1;fill-rule:nonzero;stroke:none"
           id="path2676" /><path
           d="m 363.93726,497.52336 h 18.51868 v 4.49586 l -11.48434,19.36411 c -0.66848,1.11414 -1.60348,2.18021 -1.60348,2.18021 0,0 1.82631,-0.17695 3.07152,-0.17695 h 10.41607 l -1.60129,5.07478 H 361.934 v -4.36261 l 11.39695,-18.82889 c 0.84543,-1.42653 1.91369,-2.805 1.91369,-2.805 0,0 -1.29109,0.22065 -3.16109,0.22065 h -9.52695 l 1.38066,-5.16216"
           style="fill:#c2c3c4;fill-opacity:1;fill-rule:nonzero;stroke:none"
           id="path2678" /><path
           d="m 388.42202,497.47748 h 10.46195 c 3.78151,0 5.74108,0.57891 7.61108,2.22609 1.73674,1.51391 2.5363,3.29434 2.5363,5.52043 0,2.09282 -0.75587,3.87326 -2.09065,5.20804 -0.89131,0.84543 -1.42434,1.15782 -2.84869,1.60348 4.13978,1.24521 6.14304,3.73781 6.14304,7.79021 0,4.27303 -2.67174,8.18998 -8.10261,8.54607 -0.97869,0.0437 -2.26977,0.0896 -3.96282,0.0896 h -9.7476 z m 6.14304,5.29979 v 7.12173 h 3.69412 c 1.47023,0 2.13652,-0.0896 2.67175,-0.40196 0.84543,-0.44566 1.60348,-1.95957 1.60348,-3.20478 0,-1.29109 -0.71436,-2.58218 -1.78262,-3.11521 -0.53304,-0.22283 -1.20152,-0.39978 -2.58217,-0.39978 z m 0.0896,12.2402 v 8.36912 h 4.05021 c 1.29109,0 2.18021,-0.22283 2.89457,-0.71217 0.935,-0.71217 1.60129,-2.13652 1.60129,-3.60674 0,-1.78043 -0.935,-3.29435 -2.26977,-3.78369 -0.75805,-0.22065 -0.98088,-0.26652 -2.40304,-0.26652 h -3.87326"
           style="fill:#c2c3c4;fill-opacity:1;fill-rule:nonzero;stroke:none"
           id="path2680" /><path
           d="m 415.07389,497.52336 h 6.36587 v 20.3428 c 0,2.31565 0.0874,2.84869 0.53303,3.69412 0.71218,1.38066 2.1824,2.13871 4.22935,2.13871 2.71543,0 4.45217,-1.33697 4.71869,-3.60674 0.0896,-0.66849 0.0896,-1.11196 0.0896,-2.75913 v -19.80976 h 6.31999 v 20.83214 c 0,2.93826 -0.0437,3.51718 -0.48935,4.85196 -0.80174,2.44891 -3.82738,5.83282 -10.50564,5.83282 -4.71869,0 -8.1463,-1.42434 -9.92673,-4.13978 -1.02457,-1.60348 -1.33478,-2.84869 -1.33478,-5.83282 v -21.54432"
           style="fill:#c2c3c4;fill-opacity:1;fill-rule:nonzero;stroke:none"
           id="path2682" /><path
           d="m 444.40843,497.47748 11.53021,0.0459 c 5.47455,0 9.08129,3.65043 9.08129,9.08129 0,4.62913 -3.07152,8.45869 -6.90108,8.54608 0.62479,0.49153 0.8913,0.75805 1.29108,1.29108 1.78043,2.22609 7.43631,12.01956 7.43631,12.01956 h -7.34674 c -1.20152,-2.04695 -1.69086,-2.89238 -2.89238,-5.07478 -3.07371,-5.56412 -4.0524,-7.03434 -5.12066,-7.56738 -0.31021,-0.13326 -0.48934,-0.22283 -0.97869,-0.26871 v 12.91087 h -6.09934 z m 6.14303,5.03109 -0.0437,8.36912 h 2.09064 c 2.67174,0 3.82957,-0.2687 4.675,-1.02238 0.75805,-0.71436 1.20152,-1.82631 1.20152,-3.1174 0,-1.91369 -0.75586,-3.20478 -2.22608,-3.78369 -0.70999,-0.2687 -2.00108,-0.44565 -3.51499,-0.44565 h -2.1824"
           style="fill:#c2c3c4;fill-opacity:1;fill-rule:nonzero;stroke:none"
           id="path2684" /><path
           d="m 492.41674,500.59487 -3.29434,3.87108 c -2.00326,-1.64499 -4.09609,-2.40304 -6.45544,-2.40304 -1.82412,0 -3.38172,0.53522 -4.45217,1.55761 -2.09064,2.00326 -2.62586,5.34348 -2.62586,9.9726 0,4.4063 0.75805,7.25717 2.31565,8.81478 1.15564,1.11195 2.84869,1.73456 4.85195,1.73456 1.38066,0 2.49261,-0.22065 3.51718,-0.75587 v -7.03434 h -4.7187 l -0.80174,-5.07478 h 11.97587 v 14.78086 c -3.16109,1.87 -6.63457,2.75913 -10.285,2.75913 -4.62913,0 -8.05673,-1.51392 -10.54934,-4.7187 -2.26977,-2.89238 -3.29434,-6.18672 -3.29434,-10.81803 0,-6.54282 2.13652,-11.17194 6.45543,-14.06651 2.26978,-1.51391 4.58543,-2.18021 7.52369,-2.18021 3.73782,0 7.12173,1.20152 9.83716,3.56086"
           style="fill:#c2c3c4;fill-opacity:1;fill-rule:nonzero;stroke:none"
           id="path2686" /><path
           d="m 313.73344,488.2236 c 1.90932,0 3.46692,1.52047 3.46692,3.39047 0,1.90714 -1.5576,3.46474 -3.4276,3.46474 -1.90932,0 -3.42761,-1.5576 -3.42761,-3.46474 0,-1.87 1.51829,-3.39047 3.38829,-3.39047"
           style="fill:#c2c3c4;fill-opacity:1;fill-rule:nonzero;stroke:none"
           id="path2688" /><path
           d="m 323.34996,488.2236 c 1.90713,0 3.46474,1.52047 3.46474,3.39047 0,1.90714 -1.55761,3.46474 -3.42761,3.46474 -1.90713,0 -3.42542,-1.5576 -3.42542,-3.46474 0,-1.87 1.51829,-3.39047 3.38829,-3.39047"
           style="fill:#c2c3c4;fill-opacity:1;fill-rule:nonzero;stroke:none"
           id="path2690" /><path
           d="m 339.24932,421.9522 h 1.93336 v 13.42424 c 0,0.61387 -0.024,1.29764 -0.0459,1.72363 -0.0481,0.77771 -0.23812,1.41561 -0.54396,1.98142 -0.51774,0.9197 -1.4877,1.65154 -2.73728,2.07535 l -0.94374,-1.20371 c 0.87384,-0.3539 1.60567,-0.94374 1.93554,-1.57945 0.30584,-0.54396 0.40196,-1.29764 0.40196,-2.94918 v -13.4723"
           style="fill:#c2c3c4;fill-opacity:1;fill-rule:nonzero;stroke:none"
           id="path2692" /><path
           d="m 344.41585,426.48302 1.81539,-0.35391 v 8.44559 c 0,1.15564 0.142,1.58163 0.68377,1.93554 0.37794,0.25778 0.94374,0.44783 1.46367,0.44783 1.15564,0 2.35935,-0.8498 2.99506,-2.12341 v -8.32761 l 1.81757,-0.30803 v 8.32762 c 0,1.3457 0.0481,1.74548 0.284,2.1955 0.11796,0.25778 0.20972,0.37793 0.51774,0.65974 l -1.17967,1.25177 c -0.77771,-0.6379 -1.10758,-1.10977 -1.27361,-1.88748 -0.89786,1.20152 -2.12341,1.79136 -3.72689,1.79136 -1.4877,0 -2.64335,-0.61169 -3.09118,-1.67339 -0.21191,-0.45003 -0.30585,-1.06171 -0.30585,-1.74767 v -8.63345"
           style="fill:#c2c3c4;fill-opacity:1;fill-rule:nonzero;stroke:none"
           id="path2694" /><path
           d="m 356.72378,421.36455 1.9115,-0.37794 c 0.30584,0.89568 0.28181,2.21735 0.28181,3.63296 v 11.15883 c 0,0.91971 0.142,1.17967 0.66193,1.17967 0.0699,0 0.23594,-0.0481 0.23594,-0.0481 l 0.37574,1.20371 c -0.46968,0.2119 -0.68377,0.25996 -1.17749,0.25996 -0.59202,0 -1.03986,-0.16603 -1.39376,-0.4959 -0.42381,-0.37793 -0.5658,-0.82577 -0.5658,-1.67557 v -11.58264 c 0,-1.76951 -0.0459,-2.43144 -0.32987,-3.25502"
           style="fill:#c2c3c4;fill-opacity:1;fill-rule:nonzero;stroke:none"
           id="path2696" /><path
           d="m 363.84769,421.31649 c 0.80174,0 1.43964,0.63571 1.43964,1.43745 0,0.80392 -0.6379,1.44182 -1.43964,1.44182 -0.80174,0 -1.43964,-0.6379 -1.43964,-1.41779 0,-0.80174 0.6379,-1.46148 1.43964,-1.46148 m -0.9918,5.11847 1.95957,-0.30585 v 12.00864 h -1.95957 v -11.70279"
           style="fill:#c2c3c4;fill-opacity:1;fill-rule:nonzero;stroke:none"
           id="path2698" /><path
           d="m 368.80232,426.48302 1.81538,-0.35391 v 8.44559 c 0,1.15564 0.142,1.58163 0.68596,1.93554 0.37575,0.25778 0.94155,0.44783 1.46148,0.44783 1.15783,0 2.35935,-0.8498 2.99725,-2.12341 v -8.32761 l 1.81538,-0.30803 v 8.32762 c 0,1.3457 0.0481,1.74548 0.284,2.1955 0.11796,0.25778 0.2119,0.37793 0.51774,0.65974 l -1.17967,1.25177 c -0.77771,-0.6379 -1.10758,-1.10977 -1.27361,-1.88748 -0.89568,1.20152 -2.12341,1.79136 -3.72689,1.79136 -1.4877,0 -2.64334,-0.61169 -3.09118,-1.67339 -0.21191,-0.45003 -0.30584,-1.06171 -0.30584,-1.74767 v -8.63345"
           style="fill:#c2c3c4;fill-opacity:1;fill-rule:nonzero;stroke:none"
           id="path2700" /><path
           d="m 388.33682,426.86095 -0.68377,1.36755 c -1.03986,-0.49372 -1.91151,-0.84762 -2.94918,-0.84762 -1.3457,0 -2.21953,0.77771 -2.21953,1.93335 0,0.42381 0.11796,0.77771 0.33205,1.03768 0.25778,0.32987 0.65975,0.51993 1.36755,0.65974 l 1.5576,0.32987 c 2.12342,0.47405 3.13706,1.53358 3.13706,3.28124 0,2.28725 -1.79354,3.84486 -4.4347,3.84486 -1.48769,0 -3.11521,-0.44784 -4.31891,-1.17967 l 0.7078,-1.36755 c 1.20371,0.72965 2.43144,1.10977 3.72908,1.10977 1.43745,0 2.38338,-0.7799 2.38338,-2.03166 0,-1.06171 -0.59202,-1.64936 -1.93554,-1.93336 l -1.46367,-0.30802 c -1.0617,-0.23594 -1.67339,-0.56362 -2.21735,-1.17749 -0.4959,-0.56799 -0.75368,-1.27579 -0.75368,-2.0535 0,-2.12342 1.72145,-3.60893 4.17474,-3.60893 1.22773,0 2.59528,0.37793 3.58707,0.94374"
           style="fill:#c2c3c4;fill-opacity:1;fill-rule:nonzero;stroke:none"
           id="path2702" /><path
           d="m 391.30785,432.73528 h 4.50679 v -1.79354 h -4.50679 z"
           style="fill:#c2c3c4;fill-opacity:1;fill-rule:nonzero;stroke:none"
           id="path2704" /><path
           d="m 400.06146,421.9522 h 2.82903 l 2.94919,10.56899 c 0.30802,1.1338 0.42599,1.58164 0.63789,2.83122 0.25997,-1.36755 0.37793,-1.81539 0.58984,-2.64116 l 3.04312,-10.75905 h 2.85524 l 1.39158,16.18555 h -1.93554 l -0.94374,-11.86664 c -0.0699,-1.03767 -0.11796,-2.76131 -0.11796,-2.76131 -0.16385,0.80174 -0.44566,1.91151 -0.63572,2.54722 l -3.46692,12.08073 h -1.65373 l -3.20696,-11.48871 c -0.33206,-1.22773 -0.56581,-2.02947 -0.80174,-3.16327 0,0 -0.11797,2.14744 -0.19006,3.13924 l -0.89568,11.51274 h -1.86345 l 1.41561,-16.18555"
           style="fill:#c2c3c4;fill-opacity:1;fill-rule:nonzero;stroke:none"
           id="path2706" /><path
           d="m 416.36061,427.66269 c 1.5576,-1.03768 3.23318,-1.58164 4.9306,-1.58164 1.62751,0 2.7613,0.6379 3.2572,1.8416 0.21191,0.51775 0.25778,0.91971 0.25778,2.00545 v 0.58983 l -0.0939,3.86889 c -0.0219,0.16603 -0.0219,0.35391 -0.0219,0.54178 0,1.43964 0.21191,1.95738 0.96559,2.33532 l -0.94374,1.32167 c -0.80174,-0.25997 -1.39158,-0.89787 -1.60348,-1.72145 -1.13162,1.13161 -2.05351,1.57945 -3.39921,1.57945 -1.48551,0 -2.21516,-0.37793 -2.82903,-0.94374 -0.66193,-0.61387 -0.94374,-1.65154 -0.94374,-2.40522 0,-2.66519 2.28726,-4.22279 6.22824,-4.22279 0.28399,0 0.42381,0 0.82577,0.0218 v -0.82577 c 0,-1.03767 -0.0481,-1.46148 -0.37793,-1.83941 -0.37794,-0.42381 -0.84981,-0.6379 -1.57945,-0.6379 -0.68596,0 -1.39377,0.14418 -2.26541,0.51993 -0.70781,0.28399 -0.94374,0.44784 -1.4877,0.87383 z m 6.58214,4.50679 c -0.40197,-0.024 -0.58984,-0.0481 -0.91971,-0.0481 -1.79354,0 -2.78315,0.32987 -3.37299,0.94373 -0.44784,0.47187 -0.66193,1.06171 -0.66193,1.86345 0,1.39376 0.68596,2.14744 2.02948,2.14744 1.2037,0 2.31128,-0.73183 2.85524,-1.8416 l 0.0699,-3.06496"
           style="fill:#c2c3c4;fill-opacity:1;fill-rule:nonzero;stroke:none"
           id="path2708" /><path
           d="m 427.4255,426.43496 h 2.26541 l 2.31129,3.86889 2.24138,-3.86889 h 2.14744 l -3.46911,5.19056 4.50678,6.51223 h -2.24137 l -3.18512,-5.0005 -3.18512,5.0005 h -2.16929 l 4.38882,-6.51223 z"
           style="fill:#c2c3c4;fill-opacity:1;fill-rule:nonzero;stroke:none"
           id="path2710" /><path
           d="m 440.19,421.31649 c 0.79956,0 1.43746,0.63571 1.43746,1.43745 0,0.80392 -0.6379,1.44182 -1.43746,1.44182 -0.80392,0 -1.44182,-0.6379 -1.44182,-1.41779 0,-0.80174 0.6379,-1.46148 1.44182,-1.46148 m -0.9918,5.11847 1.95739,-0.30585 v 12.00864 h -1.95739 v -11.70279"
           style="fill:#c2c3c4;fill-opacity:1;fill-rule:nonzero;stroke:none"
           id="path2712" /><path
           d="m 444.6946,426.52889 1.79354,-0.42381 c 0.23594,0.47187 0.42381,1.15565 0.42381,1.65155 v 0.0939 c 0.54396,-0.5658 0.77771,-0.73183 1.43964,-1.13161 0.75368,-0.44784 1.34352,-0.6379 1.98141,-0.6379 0.91971,0 1.81539,0.47187 2.33532,1.17968 0.16603,0.23593 0.25996,0.37793 0.40196,0.77989 1.13161,-1.2037 2.57125,-1.95957 3.77496,-1.95957 1.74547,0 2.94918,1.32167 2.94918,3.18731 v 8.86939 h -1.88748 v -8.68152 c 0,-1.1338 -0.51993,-1.72145 -1.51173,-1.72145 -0.5658,0 -1.17749,0.23375 -1.72145,0.63571 -0.3539,0.25997 -0.75586,0.58984 -1.17967,0.98962 l -0.2119,0.19006 v 8.58758 h -1.86345 v -8.35165 c 0,-1.01583 -0.024,-1.17967 -0.33206,-1.50954 -0.28181,-0.33206 -0.65974,-0.47187 -1.2037,-0.47187 -0.89568,0 -1.76732,0.44784 -2.99506,1.55542 v 8.77764 h -1.76951 v -8.75361 c 0,-1.62751 -0.0459,-1.88748 -0.42381,-2.85525"
           style="fill:#c2c3c4;fill-opacity:1;fill-rule:nonzero;stroke:none"
           id="path2714" /><path
           d="m 464.58302,421.31649 c 0.80174,0 1.43745,0.63571 1.43745,1.43745 0,0.80392 -0.63571,1.44182 -1.43745,1.44182 -0.80393,0 -1.43964,-0.6379 -1.43964,-1.41779 0,-0.80174 0.63571,-1.46148 1.43964,-1.46148 m -0.9918,5.11847 1.95738,-0.30585 v 12.00864 h -1.95738 v -11.70279"
           style="fill:#c2c3c4;fill-opacity:1;fill-rule:nonzero;stroke:none"
           id="path2716" /><path
           d="m 469.20559,421.36455 1.9115,-0.37794 c 0.30584,0.89568 0.28181,2.21735 0.28181,3.63296 v 11.15883 c 0,0.91971 0.142,1.17967 0.66193,1.17967 0.0699,0 0.23594,-0.0481 0.23594,-0.0481 l 0.37574,1.20371 c -0.46968,0.2119 -0.68377,0.25996 -1.17748,0.25996 -0.58984,0 -1.03986,-0.16603 -1.39377,-0.4959 -0.4238,-0.37793 -0.5658,-0.82577 -0.5658,-1.67557 v -11.58264 c 0,-1.76951 -0.0459,-2.43144 -0.32987,-3.25502"
           style="fill:#c2c3c4;fill-opacity:1;fill-rule:nonzero;stroke:none"
           id="path2718" /><path
           d="m 476.33168,421.31649 c 0.80175,0 1.43964,0.63571 1.43964,1.43745 0,0.80392 -0.63789,1.44182 -1.43964,1.44182 -0.80174,0 -1.43963,-0.6379 -1.43963,-1.41779 0,-0.80174 0.63789,-1.46148 1.43963,-1.46148 m -0.99179,5.11847 1.95956,-0.30585 v 12.00864 h -1.95956 v -11.70279"
           style="fill:#c2c3c4;fill-opacity:1;fill-rule:nonzero;stroke:none"
           id="path2720" /><path
           d="m 480.71832,427.66269 c 1.55761,-1.03768 3.23318,-1.58164 4.9306,-1.58164 1.62751,0 2.7613,0.6379 3.2572,1.8416 0.21191,0.51775 0.25778,0.91971 0.25778,2.00545 v 0.58983 l -0.0939,3.86889 c -0.024,0.16603 -0.024,0.35391 -0.024,0.54178 0,1.43964 0.21409,1.95738 0.96777,2.33532 l -0.94374,1.32167 c -0.80174,-0.25997 -1.39158,-0.89787 -1.60348,-1.72145 -1.1338,1.13161 -2.05351,1.57945 -3.39703,1.57945 -1.48551,0 -2.21734,-0.37793 -2.83121,-0.94374 -0.66193,-0.61387 -0.94374,-1.65154 -0.94374,-2.40522 0,-2.66519 2.28944,-4.22279 6.22824,-4.22279 0.28181,0 0.42381,0 0.82577,0.0218 v -0.82577 c 0,-1.03767 -0.0481,-1.46148 -0.37793,-1.83941 -0.37794,-0.42381 -0.84981,-0.6379 -1.58164,-0.6379 -0.68377,0 -1.39158,0.14418 -2.26322,0.51993 -0.70781,0.28399 -0.94374,0.44784 -1.4877,0.87383 z m 6.58214,4.50679 c -0.40196,-0.024 -0.58984,-0.0481 -0.91971,-0.0481 -1.79354,0 -2.78315,0.32987 -3.37299,0.94373 -0.44784,0.47187 -0.66193,1.06171 -0.66193,1.86345 0,1.39376 0.68377,2.14744 2.02948,2.14744 1.2037,0 2.31128,-0.73183 2.85524,-1.8416 l 0.0699,-3.06496"
           style="fill:#c2c3c4;fill-opacity:1;fill-rule:nonzero;stroke:none"
           id="path2722" /><path
           d="m 492.65705,426.60098 1.79135,-0.4959 c 0.30803,0.65975 0.42599,1.15565 0.42599,1.83942 1.22555,-1.22555 2.45329,-1.81539 3.70287,-1.81539 1.27361,0 2.40522,0.68378 2.87709,1.72145 0.19006,0.426 0.28399,0.89787 0.28399,1.36973 v 8.91746 h -1.86344 v -7.95187 c 0,-1.24958 -0.0699,-1.57945 -0.42381,-1.95738 -0.25997,-0.30585 -0.75587,-0.49372 -1.29983,-0.49372 -0.94155,0 -2.40522,0.75368 -3.25283,1.64936 v 8.75361 h -1.79354 v -8.75361 c 0,-1.62751 -0.0481,-1.88748 -0.44784,-2.78316"
           style="fill:#c2c3c4;fill-opacity:1;fill-rule:nonzero;stroke:none"
           id="path2724" /><path
           d="m 512.61536,426.86095 -0.68377,1.36755 c -1.03986,-0.49372 -1.91151,-0.84762 -2.95137,-0.84762 -1.34351,0 -2.21734,0.77771 -2.21734,1.93335 0,0.42381 0.12015,0.77771 0.32987,1.03768 0.26215,0.32987 0.66193,0.51993 1.36973,0.65974 l 1.5576,0.32987 c 2.12342,0.47405 3.13706,1.53358 3.13706,3.28124 0,2.28725 -1.79136,3.84486 -4.4347,3.84486 -1.48551,0 -3.11521,-0.44784 -4.31673,-1.17967 l 0.70781,-1.36755 c 1.20152,0.72965 2.42925,1.10977 3.72689,1.10977 1.43964,0 2.38338,-0.7799 2.38338,-2.03166 0,-1.06171 -0.58984,-1.64936 -1.93554,-1.93336 l -1.46367,-0.30802 c -1.0617,-0.23594 -1.67339,-0.56362 -2.21735,-1.17749 -0.49371,-0.56799 -0.75586,-1.27579 -0.75586,-2.0535 0,-2.12342 1.72363,-3.60893 4.17691,-3.60893 1.22774,0 2.59529,0.37793 3.58708,0.94374"
           style="fill:#c2c3c4;fill-opacity:1;fill-rule:nonzero;stroke:none"
           id="path2726" /><path
           d="m 516.09758,432.73528 h 4.50461 v -1.79354 h -4.50461 z"
           style="fill:#c2c3c4;fill-opacity:1;fill-rule:nonzero;stroke:none"
           id="path2728" /></g></g><text
       xml:space="preserve"
       style="font-size:71.9307px;line-height:normal;font-family:Arial;-inkscape-font-specification:Arial;text-decoration-color:#000000;opacity:0.7;fill:#ffffff;fill-opacity:1;stroke-width:7.63484;stop-color:#000000"
       x="101.19388"
       y="-48.17543"
       id="text11807"><tspan
         sodipodi:role="line"
         id="tspan11805"
         style="font-style:normal;font-variant:normal;font-weight:300;font-stretch:normal;font-family:Plexes;-inkscape-font-specification:'Plexes Light';fill:#ffffff;fill-opacity:1;stroke-width:7.63484"
         x="101.19388"
         y="-48.17543">UAS <tspan
   style="font-style:normal;font-variant:normal;font-weight:normal;font-stretch:normal;font-family:Plexes;-inkscape-font-specification:Plexes;stroke-width:7.63484"
   id="tspan3260">Research</tspan></tspan></text><path
       style="opacity:1;fill:none;fill-opacity:1;stroke:#c2c3c4;stroke-width:1.40085;stroke-linecap:round;stroke-dasharray:none;stroke-opacity:1;stop-color:#000000"
       d="m 85.218281,-106.5366 v 70.039287"
       id="path1104" /></g></svg>
